Coordinates
version=1
nRows=7
nColumns=33
inDegrees=yes

Units are S.I. units (second, meters, Newtons, ...)
Angles are in degrees.

endheader
time	ground_thorax_rot_x	ground_thorax_rot_y	ground_thorax_rot_z	ground_thorax_tx	ground_thorax_ty	ground_thorax_tz	clav_prot_r	clav_elev_r	scapula_abduction_r	scapula_elevation_r	scapula_upward_rot_r	scapula_winging_r	shoulder_elv_r	plane_of_elev_r	axial_rot_r	elbow_flexion_r	pro_sup_r	wrist_flex_r	wrist_dev_r	clav_prot_l	clav_elev_l	scapula_abduction_l	scapula_elevation_l	scapula_upward_rot_l	scapula_winging_l	shoulder_elv_l	plane_of_elev_l	axial_rot_l	elbow_flexion_l	pro_sup_l	wrist_flex_l	wrist_dev_l
      7.85000000	     -0.41965192	      2.52143578	     11.48426423	     -0.11018113	      1.03052292	      0.01514417	      9.51168189	    -13.24037793	     16.23449281	     -5.42313849	     -1.02519865	     -1.83149021	    -28.84219031	    -74.80203137	    108.60728396	    -84.41390109	   -165.67849280	     19.23406440	    -12.96709684	     14.65334370	     -3.52379722	    -20.82411353	    -18.17051735	    -35.23866345	      2.73716062	     59.42925902	    -23.79047116	      3.42729922	     68.07288054	     13.20698016	     16.38665054	    -14.82496665
      7.86000000	     -0.36085372	      2.45931323	     11.36305936	     -0.11020795	      1.03137708	      0.01498857	      9.07321736	    -13.44058820	     15.15569581	     -5.30332374	     -1.78009901	     -1.29712375	    -30.97918724	    -75.68839619	    106.70406619	    -84.67155800	   -164.51299733	     22.70164595	    -16.03078119	     13.96949625	     -3.23011789	    -19.57458179	    -18.39207497	    -35.02198779	      2.15036216	     59.79718005	    -25.45768835	      2.18556506	     69.26753375	     13.23575657	     15.14345253	    -16.29981982
      7.87000000	     -0.18796555	      2.25877657	     11.47562244	     -0.11064395	      1.03124945	      0.01497126	      8.80523820	    -12.74445664	     14.45999566	     -4.43570126	     -2.32336719	     -1.32722521	    -31.69828218	    -76.20349434	    106.68342668	    -85.28198919	   -164.36367850	     23.09939287	    -16.21936818	     13.70570298	     -2.75338551	    -19.17141650	    -19.09641164	    -35.51547360	      1.84368552	     59.45010254	    -26.42990087	      2.30944894	     70.38171054	     13.13473067	     15.01409976	    -16.62070266
      7.88000000	      0.04353748	      2.26705325	     11.70340851	     -0.11069459	      1.03182917	      0.01495072	      8.38252224	    -12.38288249	     13.45543918	     -3.83118177	     -2.97615319	     -1.07488894	    -33.75769774	    -76.89166665	    104.99305737	    -85.14166505	   -162.91605791	     26.26860812	    -18.59314916	     13.06075442	     -2.36693479	    -17.97319755	    -19.41558631	    -35.31737318	      1.27754607	     59.46505420	    -27.86447132	      0.98058924	     70.93898358	     13.54063950	     13.75468835	    -18.35155278
      7.89000000	      0.08850972	      2.01081035	     11.59077618	     -0.11127089	      1.03161801	      0.01478943	      8.20204824	    -11.88052217	     12.97653927	     -3.20534544	     -3.35657826	     -1.08792572	    -34.46928395	    -77.43067926	    105.03750846	    -85.46548102	   -162.69832449	     26.67157653	    -18.77216386	     12.85841282	     -1.87130034	    -17.66042478	    -20.11821130	    -35.76590558	      1.00742710	     59.21072569	    -28.88065321	      1.16121993	     72.12946824	     13.45768938	     13.57500242	    -18.74640690
      7.90000000	      0.36107391	      1.92617586	     11.79049999	     -0.11127273	      1.03237768	      0.01479638	      7.84391193	    -11.55001768	     12.17396442	     -2.71761985	     -3.79104591	     -0.89750984	    -36.79521145	    -78.07332459	    103.00273564	    -84.87747194	   -160.57423400	     30.52461886	    -21.38087136	     12.17550973	     -1.52269557	    -16.35387831	    -20.33032008	    -35.40361018	      0.43395691	     59.13899836	    -30.36984306	     -0.26444902	     72.22146021	     14.32697727	     11.84342616	    -21.19471208
      7.91000000	      0.50795249	      1.56812898	     11.46327770	     -0.11107947	      1.03254258	      0.01467353	      7.73683193	    -11.00142310	     12.26038560	     -2.49978125	     -3.12227386	     -1.17987231	    -40.84226605	    -78.43213455	    100.01261464	    -84.30895082	   -158.73082100	     33.50764700	    -23.18945192	     11.44660591	     -1.02629551	    -14.89296188	    -20.57879004	    -34.81659034	     -0.17281859	     58.90304179	    -31.88632687	     -1.06253363	     72.72606151	     15.24013979	     10.02919376	    -23.81833859
